# xmcd
#
# Track frame offsets: 
#        150
#        17637
#        44885
#        71452
#        107722
#        127680
#        145477
#        173562
#        219400
#        240702
#
# Disc length: 3457 seconds
#
# Revision: 2
# Processed by: cddbd v1.5.2PL0 Copyright (c) Steve Scherf et al.
# Submitted via: ExactAudioCopy v0.99pb1
#
DISCID=8a0d7f0a
DTITLE=Rick Derringer - Electra Blues
DYEAR=1994
DGENRE=Blues-Rock
TTITLE0=I Got Something To Say
TTITLE1=Unsung Hero Of The Blues
TTITLE2=Electra Blues
TTITLE3=If It's The Blues
TTITLE4=Firebrand Rebel
TTITLE5=Blue Boogie
TTITLE6=You Can't Be Everywhere At Once
TTITLE7=All I Want To Do Is Cry
TTITLE8=Deeper In The Blues
TTITLE9=You Don't Miss What
EXTD=
EXTT0=
EXTT1=
EXTT2=
EXTT3=
EXTT4=
EXTT5=
EXTT6=
EXTT7=
EXTT8=
EXTT9=
PLAYORDER=
